<?xml version="1.0" standalone="no"?><!DOCTYPE svg PUBLIC "-//W3C//DTD SVG 1.1//EN" "http://www.w3.org/Graphics/SVG/1.1/DTD/svg11.dtd"><svg t="1739363721314" class="icon" viewBox="0 0 1024 1024" version="1.1" xmlns="http://www.w3.org/2000/svg" p-id="1685" xmlns:xlink="http://www.w3.org/1999/xlink" width="200" height="200"><path d="M425.28319588 251.84958894c8.28504494-25.95980704 33.14017975-45.29157942 62.41400607-45.29157943 24.30279805 0 45.8439149 13.2560719 56.89064105 33.14017976 7.73270818-3.86635473 16.57008987-6.07569919 25.40747157-6.07569919 22.0934536 0 41.97756145 12.70373514 51.36727861 30.93083399 5.52336372-2.20934575 11.04672615-3.31401797 17.12242664-3.31401797 21.54111683 0 39.21587894 14.91308089 43.63456915 34.79718875 19.88410785 2.76168122 35.3495255 19.88410785 35.3495255 40.87288921 0 3.86635473-0.55233676 7.73270818-1.65700899 11.59906293 13.2560719 6.62803595 22.0934536 20.43644462 22.0934536 36.45419771 0 22.64578907-18.22709886 40.87288794-41.42522469 40.87288794-3.86635473 0-7.1803727-0.55233676-11.04672745-1.65700899-9.38971716 11.59906291-23.75046259 18.77943563-39.7682157 18.77943564-18.77943563 0-35.3495255-9.94205392-44.18690591-24.85513482-9.38971716 4.97102697-20.43644462 7.1803727-32.03550753 7.18037141-19.88410785 0-37.00653449-7.73270818-49.15793286-19.88410786-12.15139967 12.15139967-28.72148955 19.88410785-46.94858842 19.88410786-14.36074413 0-27.61681602-4.4186902-38.11120672-12.15139838-9.38971716 15.46541765-27.06448057 25.95980704-48.05326064 25.95980703-9.38971716 0-18.22709886-2.20934575-26.51214381-6.07569918-9.38971716 8.28504494-22.0934536 13.2560719-35.90186096 13.25607191-30.37849854 0-55.23363335-24.30279805-55.23363335-54.68129661 0-20.43644462 11.04672615-38.11120672 27.61681732-47.50092516v-3.86635345c0-28.1691528 23.19812583-51.36727861 51.36727863-51.36727862h4.41869019c4.97102697-23.75046259 25.40747158-41.42522469 50.81494186-41.42522469 8.28504494 0.55233676 15.46541765 1.65700898 21.54111684 4.41869021z" fill="#FFDC45" p-id="1686"></path><path d="M286.09444092 562.26260639v-56.89064234h136.42707375c9.38971716 0 40.32055247 16.57008987 40.32055247 24.85513481v34.24485199c0 10.49439069-11.04672615 57.4429778-34.24485328 57.4429791H357.34582738c-24.30279805 0.55233676-71.25138647-19.88410785-71.25138646-59.65232356z" fill="#FF5E5E" p-id="1687"></path><path d="M728.51584063 553.42522469v-48.60559739h-129.79903651c-8.28504494 0-30.37849854 13.80840865-30.37849854 20.4364446v43.63457044c0 8.8373817 10.49439069 49.15793286 34.24485199 49.15793286h56.33830557c20.98878007 0 69.59437748-30.93083402 69.59437749-64.62335051z" fill="#04ADF6" p-id="1688"></path><path d="M303.76920432 666.10183585l170.67192572 173.43360694-24.30279935-5.52336243-146.92146314-145.81679091zM303.21686755 742.87658604l91.6878311 91.13549432h-19.3317724l-68.48970396-69.04204201zM640.14202881 734.5915411l21.54111684 16.01775312c13.2560719 9.94205392 16.01775312 28.72148955 6.07569918 41.97756145-1.65700898 2.20934575-3.86635473 4.4186902-6.07569918 6.07569919l-16.57008988 12.70373516c-10.49439069 7.73270818-25.40747158 7.73270818-35.90186226 0l-17.12242534-12.70373516c-13.2560719-9.94205392-16.01775312-28.72148955-6.07570049-41.97756145 1.65700898-2.20934575 3.86635473-4.4186902 6.07570049-6.07569919l20.98878008-16.01775312c8.28504494-6.07569919 19.33177108-6.07569919 27.06448056 0z" fill="#FF5E5E" p-id="1689"></path><path d="M483.27851045 355.13648293c9.94205392 0 17.12242665-1.65700898 25.40747158-7.18037271 5.52336372 10.49439069 14.36074413 14.91308089 27.61681602 14.91308089 18.22709886 0 27.61681602-4.97102697 32.58784429-22.64578907l-7.73270948-2.20934574c-3.86635473 13.2560719-9.38971716 16.57008987-24.30279804 16.57008987-14.36074413 0-20.98878007-4.97102697-24.30279806-22.09345359l-8.28504494 1.65700899 1.65700899 6.62803594c-7.73270818 5.52336372-13.80840865 7.1803727-22.09345361 7.18037271-9.94205392 0-14.91308089-4.97102697-23.19812581-23.19812583l-7.73270818 3.31401798c8.8373817 19.88410785 16.01775312 27.06448057 30.37849724 27.06448056zM354.58414617 393.80002512c12.70373514 0 24.30279805-7.73270818 28.72148955-19.33177109l-7.73270947-3.31401798c-3.31401797 8.8373817-11.59906291 14.36074413-20.98878008 14.36074413-10.49439069 0-19.33177108-6.62803595-22.09345359-16.57008988l-7.73270819 2.20934575c3.86635473 13.2560719 16.01775312 22.64578907 29.82616178 22.64578907zM356.79349193 631.30464711h70.6990497c24.85513482 0 42.52989692-50.81494186 42.52989692-61.86166931v-53.57662307c0-8.8373817-27.61681602-27.06448057-37.55886996-27.06448056H269.52435104v61.30933255c0 42.52989692 60.75699579 81.19344039 87.26914089 81.19344039z m-78.98409595-134.217728h154.65417261c2.76168122 0 10.49439069 3.86635473 17.6747621 8.8373817 3.86635473 2.76168122 7.1803727 5.52336372 9.38971846 7.73270817 1.10467223 1.10467223 1.65700898 2.20934575 2.20934446 2.76168122v53.0242876c0 16.01775312-20.43644462 53.57662436-34.24485198 53.57662437H356.79349193c-28.72148955 0-78.98409465-40.87288794-78.98409595-72.90839545v-53.02428761zM595.95512161 631.30464711H666.65417262c26.51214381 0 87.26913958-38.66354348 87.26913957-81.19344039v-61.30933255h-162.93921754c-10.49439069 0-38.11120672 17.12242665-38.11120671 25.40747158v55.23363205c0 11.04672615 13.2560719 61.86166931 43.08223367 61.86166931z m-34.79718875-116.54296589c0.55233676-0.55233676 1.10467223-1.65700898 2.20934575-2.76168122 2.20934575-2.20934575 5.52336372-4.97102697 9.38971718-7.1803727 7.1803727-4.97102697 15.46541765-8.28504494 18.22709886-8.28504495h154.6541726v53.02428761c0 32.03550753-50.26260639 72.90839547-78.98409463 72.90839545h-70.69905101c-17.6747621 0-34.24485198-34.24485198-34.24485198-53.57662307v-54.12896112z" fill="#D12C2C" p-id="1690"></path><path d="M744.53359503 466.70842058l3.86635344-43.63456916h-0.55233547c11.04672615-8.8373817 18.22709886-22.64578907 18.22709887-38.11120672 0-17.12242665-8.8373817-33.14017975-23.75046259-41.42522468 0.55233676-3.31401797 1.10467223-6.62803595 1.10467223-10.49439069 0-23.19812583-16.57008987-43.08223369-39.21587894-47.50092388-6.07569919-22.0934536-27.06448057-38.11120672-50.81494187-38.11120672-5.52336372 0-11.59906291 1.10467223-16.57008986 2.76168122-12.15139967-19.88410785-33.69251651-32.587843-57.99531457-32.58784299-8.8373817 0-17.6747621 1.65700898-25.95980833 4.97102697-13.2560719-21.54111683-37.00653449-35.3495255-63.51867701-35.34952551-31.48317076 0-59.09998679 19.33177108-70.14671424 48.05326064-6.07569919-2.20934575-12.70373514-3.31401797-19.33177109-3.31401797-27.61681602 0-51.36727861 18.77943563-57.99531457 44.73924266h-1.65700899c-33.14017975 0-60.20466032 27.06448057-60.20466031 59.65232356v1.65700899c-18.22709886 11.59906291-29.82616178 31.48317076-29.82616178 53.57662435 0 19.33177108 8.28504494 36.45419773 22.0934536 48.05326066l2.76168121 26.51214379H246.87856197v83.40278486c0 30.93083402 22.0934536 60.75699579 46.94858842 80.08876817 2.20934575 30.93083402 3.86635473 58.54765132 5.52336243 82.29811261l-0.55233547-0.55233545 2.20934445 25.95980702c2.76168122 44.18690591 3.86635473 70.14671425 3.86635473 70.14671426 1.10467223 16.57008987 15.46541765 29.82616178 31.48317078 29.82616177h111.57193894l0.55233546 0.55233546h46.94858842l-0.55233678-0.55233546h192.76537934c16.57008987 0 30.93083402-13.2560719 31.48317078-29.82616177 0 0 5.52336372-69.04204071 13.25607189-180.0616442 23.75046259-19.33177108 44.73924267-48.05326064 44.73924267-77.87942241v-82.85044938h-32.587843z m-486.05597014-74.56540445c0-19.88410785 11.04672615-38.11120672 28.1691528-48.05326064l2.20934573-1.10467224v-2.76168121-3.86635473c0-28.72148955 23.19812583-51.36727861 51.91961409-51.36727862h4.41869149l3.86635345 0.55233676 0.55233675-3.86635473c4.97102697-23.75046259 25.95980704-41.42522469 50.81494187-41.42522469 7.1803727 0 13.80840865 1.65700898 20.43644462 4.4186902l4.41869019 1.65700899 1.65700898-4.4186902c8.8373817-27.06448057 34.24485198-46.39625165 63.51867831-46.39625166 24.30279805 0 46.39625165 13.2560719 58.54765132 33.69251651l1.65700899 3.31401798 3.31401797-1.65700899c7.73270818-3.86635473 16.57008987-6.07569919 25.95980705-6.07570049 22.0934536 0 41.97756145 12.15139967 52.47195085 31.48317077l1.65700898 3.31401798 3.31401797-1.65700899c5.52336372-2.20934575 11.04672615-3.31401797 17.12242664-3.31401798 20.98878007 0 38.66354348 14.36074413 43.08223367 34.24485327l0.55233676 2.76168122 2.76168122 0.55233676c19.88410785 2.76168122 34.79718875 19.88410785 34.79718874 39.7682157 0 3.86635473-0.55233676 7.73270818-1.65700898 11.04672615l-1.10467223 4.41869021 2.76168121 1.65700899c13.2560719 7.1803727 22.0934536 20.43644462 22.0934536 35.90186225 0 22.0934536-18.22709886 40.32055247-40.87288922 40.32055118-8.28504494 0-16.57008987-2.76168122-23.19812583-7.18037141l-3.31401797-2.20934575-2.20934446 3.31401797c-9.94205392 13.2560719-25.40747158 20.98878007-41.97756145 20.98878008s-31.48317076-7.73270818-41.42522469-20.43644332l-2.20934574-2.76168251-2.76168122 1.10467353c-8.28504494 4.4186902-18.22709886 7.1803727-28.1691528 7.18037141-17.12242665 0-32.587843-7.1803727-43.63457043-19.33177108l-2.76168122-3.31401798-3.31401798 3.31401798c-12.70373514 12.15139967-29.27382501 19.33177108-46.94858841 19.33177108-14.91308089 0-29.27382501-4.97102697-40.87288793-13.80840737l-3.31401797-2.76168249-2.76168122 3.86635473c-8.8373817 12.70373514-23.75046259 20.43644462-39.21588024 20.4364446-9.38971716 0-17.6747621-2.76168122-25.40747028-7.18037271l-3.31401797-2.20934574-2.20934575 2.7616825c-10.49439069 13.2560719-26.51214381 20.98878007-43.63457044 20.98878008-30.93083402 0-55.78596882-24.85513482-55.78596882-55.23363335z m481.08494317 35.90186226l-3.31401797 38.66354219h-452.91579039l-2.20934574-19.88410787c9.38971716 5.52336372 20.98878007 9.38971716 33.14017975 9.38971847 18.77943563 0 35.90186097-7.73270818 48.05326064-21.54111684 8.28504494 4.4186902 17.12242665 6.62803595 26.5121438 6.62803595 17.12242665 0 33.14017975-7.73270818 43.63457044-20.4364446 12.15139967 8.28504494 27.06448057 13.2560719 42.52989692 13.25607189 18.77943563 0 36.45419773-6.62803595 50.26260639-18.77943562 12.70373514 12.15139967 29.27382501 18.77943563 46.94858842 18.77943562 9.94205392 0 19.88410785-2.20934575 28.72148826-6.62803595 11.04672615 13.2560719 28.1691528 20.98878007 45.84391618 20.98878008 18.22709886 0 34.79718875-8.28504494 46.39625166-21.54111685 7.1803727 4.4186902 16.01775312 6.62803595 24.85513481 6.62803596 7.1803727 0 14.91308089-2.20934575 21.54111683-5.52336243z m-403.20552075 401.54851047c-12.15139967 0-22.64578907-9.94205392-23.19812583-22.09345229v-3.31401798c0-2.76168122-0.55233676-6.07569919-0.55233677-9.94205394-0.55233676-6.07569919-0.55233676-12.70373514-1.10467221-19.33177237l54.12895983 54.12896112h-29.27382502z m40.87288793 0l-66.28035951-66.28035951-1.65700899-25.95980704v-3.31401796l92.24016785 95.55418451h-24.30279935z m35.34952551 0l-104.39156623-108.25791965c-0.55233676-7.73270818-1.10467223-15.46541765-1.65700899-23.7504626l133.66539124 132.00838225h-27.61681602z m39.21587893 0l-144.71211739-143.05510839-2.20934576-29.82616178 170.11958898 172.88127017h-23.19812583z m262.91209358-70.69904969c-1.10467223 13.80840865-2.20934575 25.95980704-2.76168252 36.45419772-0.55233676 3.86635473-0.55233676 6.62803595-0.55233545 9.38971716v3.31401797c-0.55233676 12.15139967-11.59906291 22.0934536-23.19812584 22.09345361h-201.60276103l-183.37566087-187.2420156c0-2.20934575-0.55233676-4.4186902-0.55233676-7.18037272 14.91308089 9.94205392 30.37849854 16.01775312 41.4252247 16.01775441h98.31586703c16.57008987 0 49.15793286-29.27382501 50.81494185-76.22241343 4.97102697-4.4186902 11.04672615-7.1803727 18.77943563-7.18037271s13.80840865 2.76168122 18.77943563 7.18037271c1.65700898 52.47195085 34.24485198 76.22241343 50.81494185 76.22241343h98.31586703c11.59906291 0 27.61681602-6.62803595 43.63456915-17.67476339-2.76168122 45.8439149-6.07569919 87.82147635-8.8373804 124.82801084z m54.12895983-209.33546921c0 22.0934536-12.70373514 45.29157942-34.24485199 65.17568728-18.77943563 17.12242665-41.42522469 28.72148955-54.68129659 28.72148954h-98.31586703c-18.22709886 0-41.42522469-28.1691528-42.52989691-68.48970525v-3.86635474l-2.76168252-2.20934445c-6.62803595-6.07569919-14.91308089-9.38971716-23.75046129-9.38971846-8.8373817 0-17.12242665 3.31401797-23.75046259 9.38971846l-2.76168121 2.20934445v3.86635474c-1.65700898 37.00653449-26.51214381 68.48970526-42.52989822 68.48970525h-99.42053925c-13.2560719 0-35.90186097-11.59906291-54.68129659-28.72148954-21.54111683-19.88410785-34.24485198-43.08223369-34.24485199-65.17568728v-74.56540445h513.67278618v74.56540445z" fill="#D12C2C" p-id="1691"></path><path d="M673.83454402 739.01023131l-33.69251521-25.40747158c-7.73270818-6.07569919-18.77943563-6.07569919-27.06448056 0l-33.14017975 24.85513482c-2.20934575 1.65700898-4.4186902 3.86635473-6.07569919 6.07570048-9.94205392 13.2560719-7.1803727 32.03550753 6.07569919 41.97756016l29.27382501 22.09345361c10.49439069 8.28504494 25.40747158 8.28504494 35.90186226 0l28.72148825-21.54111685c2.20934575-1.65700898 4.4186902-3.86635473 6.07570049-6.07569919 9.94205392-13.2560719 7.1803727-32.03550753-6.07570049-41.97756145z m-0.55233545 37.00653449c-1.10467223 1.65700898-2.76168122 2.76168122-4.4186915 4.4186902l-28.72148826 21.54111683c-7.73270818 5.52336372-18.22709886 5.52336372-25.95980834 0l-29.273825-22.09345359c-9.38971716-7.1803727-11.59906291-20.43644462-4.41869021-30.37849726 1.10467223-1.65700898 2.76168122-2.76168122 4.41869021-4.41869148l33.14017973-24.85513482c4.97102697-3.86635473 12.15139967-3.86635473 17.12242665 0l33.69251522 25.40747157c9.38971716 7.1803727 11.59906291 20.98878007 4.4186915 30.37849855z" fill="#D12C2C" p-id="1692"></path></svg>